<?xml version="1.0" encoding="utf-8"?>
<!-- Generator: Adobe Illustrator 28.1.0, SVG Export Plug-In . SVG Version: 6.00 Build 0)  -->
<svg version="1.1" xmlns="http://www.w3.org/2000/svg" xmlns:xlink="http://www.w3.org/1999/xlink" x="0px" y="0px"
	 viewBox="0 0 332.8 100.1" style="enable-background:new 0 0 332.8 100.1;" xml:space="preserve">
<style type="text/css">
	.st0{fill:transparent;}
	.st1{fill:#357FFF;}
	.st2{fill:#E4E4E4;}
	.st3{fill:#FFFFFF;}
</style>
<g id="Layer_2">
	<rect x="0" y="0" class="st0" width="332.8" height="100.1"/>
</g>
<g id="Layer_1">
	<g>
		<g>
			<path class="st1" d="M136.2,52.6h-21c0.1,1.9,1,3.4,2.5,4.5c1.5,1.1,3.5,1.6,6,1.6c2.3,0,4.2-0.4,5.6-1.2
				c1.4-0.8,2.2-1.8,2.4-3.1h4.5c-0.2,2.5-1.5,4.5-3.7,6c-2.2,1.4-5.2,2.2-8.9,2.2c-2.6,0-4.9-0.4-6.8-1.3c-1.9-0.9-3.4-2.2-4.5-3.8
				c-1-1.6-1.6-3.6-1.6-5.8v-0.9c0-2.2,0.5-4.2,1.6-5.8c1-1.7,2.5-2.9,4.5-3.8c1.9-0.9,4.2-1.3,6.8-1.3c3.9,0,7,1,9.2,2.9
				c2.2,1.9,3.3,4.6,3.3,7.9V52.6z M118,45.1c-1.4,1-2.3,2.3-2.7,4h16.4c-0.3-1.7-1.1-3-2.5-4c-1.4-1-3.3-1.4-5.5-1.4
				C121.3,43.7,119.4,44.2,118,45.1z"/>
			<path class="st1" d="M161.9,43.9l-17,14.6h17v3.6h-22.7v-3.6l17-14.5h-17v-3.6h22.7V43.9z"/>
			<path class="st1" d="M193.3,58.2v3.9h-26.8v-3.5l12.7-7.3c2.5-1.4,4.3-2.6,5.5-3.5c1.2-0.9,2-1.7,2.4-2.5
				c0.4-0.8,0.6-1.7,0.6-2.7v-0.4c0-1.7-0.7-3-2.1-3.9c-1.4-0.9-3.5-1.4-6.1-1.4c-2.8,0-4.8,0.5-6.3,1.4c-1.4,1-2.1,2.4-2.1,4.2v0.9
				h-4.4v-0.9c0-3.1,1.1-5.5,3.3-7.2c2.2-1.7,5.3-2.5,9.4-2.5c4,0,7.1,0.8,9.4,2.5c2.3,1.6,3.4,3.9,3.4,6.8v0.4
				c0,1.6-0.3,2.9-0.9,4.1c-0.6,1.2-1.7,2.4-3.2,3.6c-1.5,1.2-3.7,2.6-6.6,4.3l-6.7,3.8H193.3z"/>
			<path class="st2" d="M216.9,41.5c1.9,0.9,3.3,2.1,4.3,3.7c1,1.6,1.5,3.5,1.5,5.7v1c0,2.2-0.5,4.1-1.5,5.7c-1,1.6-2.4,2.8-4.3,3.7
				c-1.9,0.9-4.1,1.3-6.6,1.3c-2.1,0-4.1-0.4-6-1.2c-1.8-0.8-3.3-1.9-4.5-3.3l0,4.1h-1.2V31.5h1.2v13.2c1.2-1.4,2.7-2.5,4.5-3.3
				c1.8-0.8,3.8-1.2,5.9-1.2C212.8,40.2,215,40.7,216.9,41.5z M221.4,50.9c0-3-1-5.3-3-7c-2-1.7-4.7-2.5-8.2-2.5
				c-2.2,0-4.2,0.4-6,1.3c-1.8,0.9-3.3,2.1-4.3,3.6v10.3c1.1,1.5,2.5,2.7,4.3,3.6c1.8,0.9,3.9,1.3,6,1.3c3.5,0,6.2-0.8,8.2-2.5
				c2-1.7,3-4,3-7V50.9z"/>
			<path class="st2" d="M232.9,61.3c-1.9-0.9-3.3-2.1-4.3-3.7c-1-1.6-1.5-3.5-1.5-5.6v-1c0-2.2,0.5-4.1,1.5-5.7
				c1-1.6,2.5-2.8,4.3-3.7c1.9-0.9,4.1-1.3,6.6-1.3c2.5,0,4.7,0.4,6.5,1.3c1.9,0.9,3.3,2.1,4.3,3.7c1,1.6,1.5,3.5,1.5,5.7v1
				c0,2.1-0.5,4-1.5,5.6c-1,1.6-2.4,2.8-4.3,3.7c-1.9,0.9-4,1.3-6.5,1.3C237,62.6,234.8,62.1,232.9,61.3z M245.4,60.3
				c1.7-0.8,2.9-1.9,3.8-3.3c0.9-1.4,1.3-3.1,1.3-5v-1c0-2.9-1-5.3-3-7c-2-1.7-4.7-2.6-8.1-2.6c-3.5,0-6.2,0.9-8.2,2.6
				c-2,1.7-3,4-3,7v1c0,2.9,1,5.2,3,6.9c2,1.7,4.7,2.5,8.2,2.5C241.8,61.4,243.7,61,245.4,60.3z"/>
			<path class="st2" d="M262.1,61.3c-1.9-0.9-3.3-2.1-4.3-3.7c-1-1.6-1.5-3.5-1.5-5.6v-1c0-2.2,0.5-4.1,1.5-5.7
				c1-1.6,2.5-2.8,4.3-3.7c1.9-0.9,4.1-1.3,6.6-1.3c2.5,0,4.7,0.4,6.5,1.3c1.9,0.9,3.3,2.1,4.3,3.7c1,1.6,1.5,3.5,1.5,5.7v1
				c0,2.1-0.5,4-1.5,5.6c-1,1.6-2.4,2.8-4.3,3.7c-1.9,0.9-4,1.3-6.5,1.3C266.2,62.6,263.9,62.1,262.1,61.3z M274.6,60.3
				c1.7-0.8,2.9-1.9,3.8-3.3c0.9-1.4,1.3-3.1,1.3-5v-1c0-2.9-1-5.3-3-7c-2-1.7-4.7-2.6-8.1-2.6c-3.5,0-6.2,0.9-8.2,2.6
				c-2,1.7-3,4-3,7v1c0,2.9,1,5.2,3,6.9c2,1.7,4.7,2.5,8.2,2.5C270.9,61.4,272.9,61,274.6,60.3z"/>
			<path class="st2" d="M292.6,41.8v14.5c0,1.5,0.4,2.6,1.2,3.4c0.8,0.8,2,1.2,3.5,1.2h5.1v1.1h-5.2c-1.9,0-3.3-0.5-4.3-1.5
				c-1-1-1.5-2.4-1.5-4.2V41.8h-9.1v-1.1h8.4c0.3,0,0.5-0.1,0.6-0.2c0.1-0.1,0.2-0.3,0.2-0.6v-5.1h1.2v5.8h11.2v1.1H292.6z"/>
		</g>
		<g>
			<g>
				<g>
					<g>
						<polygon class="st3" points="63.8,20 98.5,33.2 98.5,41 63.8,27.8 						"/>
					</g>
					<g>
						<polygon class="st2" points="63.8,20 29,33.2 29,41 63.8,27.8 						"/>
					</g>
				</g>
				<g>
					<g>
						<g>
							<polygon class="st3" points="63.8,54.1 29,40.9 29,33.2 63.8,46.3 							"/>
						</g>
						<g>
							<polygon class="st2" points="63.8,54.1 98.5,40.9 98.5,33.2 63.8,46.3 							"/>
						</g>
					</g>
					<g>
						<g>
							<polygon class="st3" points="63.8,67.1 29,53.9 29,46.1 63.8,59.3 							"/>
						</g>
						<g>
							<polygon class="st2" points="63.8,59.3 70.4,56.8 70.4,64.6 63.8,67.1 							"/>
						</g>
						<g>
							<polygon class="st2" points="81.2,55.7 81.2,57.5 98.5,50.7 98.5,53.9 79.2,61.2 79.2,53.4 98.5,46.1 98.5,49.1 							"/>
						</g>
					</g>
					<g>
						<g>
							<polygon class="st3" points="63.8,80 29,66.9 29,59.1 63.8,72.3 							"/>
						</g>
						<g>
							<polygon class="st2" points="63.8,72.3 70.4,69.8 70.4,77.5 63.8,80 							"/>
						</g>
						<g>
							<polygon class="st2" points="81.2,69 81.2,70.8 98.5,64 98.5,66.9 79.2,74.2 79.2,66.4 98.5,59.1 98.5,62.4 							"/>
						</g>
					</g>
				</g>
			</g>
			<g>
				<polygon class="st1" points="76.4,60.4 73,61.7 73,58.3 76.4,57 				"/>
			</g>
			<g>
				<polygon class="st1" points="76.4,73.2 73,74.5 73,71.1 76.4,69.8 				"/>
			</g>
		</g>
	</g>
</g>
</svg>
