<?xml version="1.0" encoding="utf-8"?>
<!-- Generator: Adobe Illustrator 28.1.0, SVG Export Plug-In . SVG Version: 6.00 Build 0)  -->
<svg version="1.1" xmlns="http://www.w3.org/2000/svg" xmlns:xlink="http://www.w3.org/1999/xlink" x="0px" y="0px"
	 viewBox="0 0 100.1 100.1" style="enable-background:new 0 0 100.1 100.1;" xml:space="preserve">
<style type="text/css">
	.st0{fill:transparent;}
	.st1{fill:#357FFF;}
	.st2{fill:#E4E4E4;}
	.st3{fill:#FFFFFF;}
</style>
<g id="Layer_2">
	<rect x="0" class="st0" width="100.1" height="100.1"/>
</g>
<g id="Layer_1">
	<g>
		<g>
			<path class="st1" d="M21.7,76.2h-8.4c0.1,0.8,0.4,1.4,1,1.8c0.6,0.4,1.4,0.7,2.4,0.7c0.9,0,1.7-0.2,2.2-0.5
				c0.6-0.3,0.9-0.7,0.9-1.2h1.8c-0.1,1-0.6,1.8-1.5,2.4c-0.9,0.6-2.1,0.9-3.5,0.9c-1,0-1.9-0.2-2.7-0.5c-0.8-0.4-1.4-0.9-1.8-1.5
				c-0.4-0.7-0.6-1.4-0.6-2.3v-0.4c0-0.9,0.2-1.7,0.6-2.3c0.4-0.7,1-1.2,1.8-1.5c0.8-0.4,1.7-0.5,2.7-0.5c1.6,0,2.8,0.4,3.7,1.1
				c0.9,0.8,1.3,1.8,1.3,3.2V76.2z M14.4,73.3c-0.6,0.4-0.9,0.9-1.1,1.6h6.5c-0.1-0.7-0.4-1.2-1-1.6c-0.6-0.4-1.3-0.6-2.2-0.6
				C15.8,72.7,15,72.9,14.4,73.3z"/>
			<path class="st1" d="M32,72.8l-6.8,5.8H32V80h-9v-1.4l6.8-5.8h-6.8v-1.5h9V72.8z"/>
			<path class="st1" d="M44.5,78.5V80H33.8v-1.4l5.1-2.9c1-0.6,1.7-1,2.2-1.4c0.5-0.4,0.8-0.7,1-1c0.2-0.3,0.3-0.7,0.3-1.1v-0.2
				c0-0.7-0.3-1.2-0.8-1.6C40.9,70.1,40.1,70,39,70c-1.1,0-1.9,0.2-2.5,0.6c-0.6,0.4-0.8,0.9-0.8,1.7v0.4h-1.8v-0.4
				c0-1.2,0.4-2.2,1.3-2.9c0.9-0.7,2.1-1,3.7-1c1.6,0,2.8,0.3,3.7,1C43.6,70,44,70.9,44,72v0.2c0,0.6-0.1,1.2-0.4,1.6
				c-0.2,0.5-0.7,0.9-1.3,1.4c-0.6,0.5-1.5,1.1-2.6,1.7l-2.7,1.5H44.5z"/>
			<path class="st2" d="M53.9,71.8c0.7,0.3,1.3,0.8,1.7,1.5c0.4,0.6,0.6,1.4,0.6,2.3v0.4c0,0.9-0.2,1.6-0.6,2.3
				c-0.4,0.6-1,1.1-1.7,1.5c-0.7,0.3-1.6,0.5-2.6,0.5c-0.9,0-1.6-0.2-2.4-0.5c-0.7-0.3-1.3-0.8-1.8-1.3l0,1.6h-0.5V67.8h0.5v5.3
				c0.5-0.6,1.1-1,1.8-1.3c0.7-0.3,1.5-0.5,2.4-0.5C52.2,71.3,53.1,71.5,53.9,71.8z M55.7,75.6c0-1.2-0.4-2.1-1.2-2.8
				c-0.8-0.7-1.9-1-3.3-1c-0.9,0-1.7,0.2-2.4,0.5c-0.7,0.3-1.3,0.8-1.7,1.4v4.1c0.4,0.6,1,1.1,1.7,1.4c0.7,0.3,1.5,0.5,2.4,0.5
				c1.4,0,2.5-0.3,3.3-1c0.8-0.7,1.2-1.6,1.2-2.8V75.6z"/>
			<path class="st2" d="M60.2,79.7c-0.8-0.3-1.3-0.8-1.7-1.5c-0.4-0.6-0.6-1.4-0.6-2.2v-0.4c0-0.9,0.2-1.6,0.6-2.3
				c0.4-0.6,1-1.1,1.7-1.5c0.8-0.3,1.6-0.5,2.6-0.5c1,0,1.9,0.2,2.6,0.5c0.7,0.3,1.3,0.8,1.7,1.5c0.4,0.6,0.6,1.4,0.6,2.3V76
				c0,0.9-0.2,1.6-0.6,2.2c-0.4,0.6-1,1.1-1.7,1.5c-0.7,0.3-1.6,0.5-2.6,0.5C61.9,80.2,61,80,60.2,79.7z M65.2,79.3
				c0.7-0.3,1.2-0.7,1.5-1.3c0.4-0.6,0.5-1.2,0.5-2v-0.4c0-1.2-0.4-2.1-1.2-2.8c-0.8-0.7-1.9-1-3.2-1c-1.4,0-2.5,0.3-3.3,1
				c-0.8,0.7-1.2,1.6-1.2,2.8V76c0,1.2,0.4,2.1,1.2,2.8c0.8,0.7,1.9,1,3.3,1C63.8,79.7,64.6,79.6,65.2,79.3z"/>
			<path class="st2" d="M71.9,79.7c-0.8-0.3-1.3-0.8-1.7-1.5c-0.4-0.6-0.6-1.4-0.6-2.2v-0.4c0-0.9,0.2-1.6,0.6-2.3
				c0.4-0.6,1-1.1,1.7-1.5c0.8-0.3,1.6-0.5,2.6-0.5c1,0,1.9,0.2,2.6,0.5c0.7,0.3,1.3,0.8,1.7,1.5c0.4,0.6,0.6,1.4,0.6,2.3V76
				c0,0.9-0.2,1.6-0.6,2.2c-0.4,0.6-1,1.1-1.7,1.5c-0.7,0.3-1.6,0.5-2.6,0.5C73.5,80.2,72.6,80,71.9,79.7z M76.8,79.3
				c0.7-0.3,1.2-0.7,1.5-1.3c0.4-0.6,0.5-1.2,0.5-2v-0.4c0-1.2-0.4-2.1-1.2-2.8c-0.8-0.7-1.9-1-3.2-1c-1.4,0-2.5,0.3-3.3,1
				c-0.8,0.7-1.2,1.6-1.2,2.8V76c0,1.2,0.4,2.1,1.2,2.8c0.8,0.7,1.9,1,3.3,1C75.4,79.7,76.2,79.6,76.8,79.3z"/>
			<path class="st2" d="M84,71.9v5.8c0,0.6,0.2,1,0.5,1.4c0.3,0.3,0.8,0.5,1.4,0.5h2V80h-2.1c-0.7,0-1.3-0.2-1.7-0.6
				c-0.4-0.4-0.6-1-0.6-1.7v-5.8h-3.6v-0.5h3.3c0.1,0,0.2,0,0.2-0.1c0,0,0.1-0.1,0.1-0.2v-2H84v2.3h4.4v0.5H84z"/>
		</g>
		<g>
			<g>
				<g>
					<g>
						<polygon class="st3" points="49.8,19.8 74.8,29.3 74.8,34.9 49.8,25.4 						"/>
					</g>
					<g>
						<polygon class="st2" points="49.8,19.8 24.8,29.3 24.8,34.9 49.8,25.4 						"/>
					</g>
				</g>
				<g>
					<g>
						<g>
							<polygon class="st3" points="49.8,44.3 24.8,34.9 24.8,29.3 49.8,38.7 							"/>
						</g>
						<g>
							<polygon class="st2" points="49.8,44.3 74.8,34.9 74.8,29.3 49.8,38.7 							"/>
						</g>
					</g>
					<g>
						<g>
							<polygon class="st3" points="49.8,53.6 24.8,44.2 24.8,38.6 49.8,48.1 							"/>
						</g>
						<g>
							<polygon class="st2" points="49.8,48.1 54.5,46.3 54.5,51.8 49.8,53.6 							"/>
						</g>
						<g>
							<polygon class="st2" points="62.3,45.5 62.3,46.8 74.8,41.9 74.8,44.2 60.9,49.4 60.9,43.8 74.8,38.6 74.8,40.8 							"/>
						</g>
					</g>
					<g>
						<g>
							<polygon class="st3" points="49.8,63 24.8,53.5 24.8,47.9 49.8,57.4 							"/>
						</g>
						<g>
							<polygon class="st2" points="49.8,57.4 54.5,55.6 54.5,61.2 49.8,63 							"/>
						</g>
						<g>
							<polygon class="st2" points="62.3,55 62.3,56.3 74.8,51.4 74.8,53.5 60.9,58.8 60.9,53.2 74.8,47.9 74.8,50.3 							"/>
						</g>
					</g>
				</g>
			</g>
			<g>
				<polygon class="st1" points="58.9,48.9 56.4,49.8 56.4,47.3 58.9,46.4 				"/>
			</g>
			<g>
				<polygon class="st1" points="58.9,58.1 56.4,59 56.4,56.5 58.9,55.6 				"/>
			</g>
		</g>
	</g>
</g>
</svg>
